<svg xmlns="http://www.w3.org/2000/svg" version="1.1" width="980px" height="980px" style="shape-rendering:geometricPrecision; text-rendering:geometricPrecision; image-rendering:optimizeQuality; fill-rule:evenodd; clip-rule:evenodd" xmlns:xlink="http://www.w3.org/1999/xlink">
    <g><path style="opacity:1" fill="#fff" d="M 672.5,257.5 C 672.565,260.428 673.232,263.095 674.5,265.5C 682.754,299.591 685.421,334.257 682.5,369.5C 681.103,375.639 680.103,381.973 679.5,388.5C 678.908,391.127 678.575,393.794 678.5,396.5C 677.232,398.905 676.565,401.572 676.5,404.5C 667.152,443.532 649.652,478.198 624,508.5C 573.528,562.437 513.362,601.77 443.5,626.5C 430.758,618.706 418.591,610.039 407,600.5C 406.561,588.827 406.727,577.16 407.5,565.5C 455.552,549.315 502.552,530.482 548.5,509C 600.952,479.277 635.619,435.444 652.5,377.5C 653.768,375.095 654.435,372.428 654.5,369.5C 660.959,337.154 663.459,304.487 662,271.5C 661.695,263.96 660.861,256.626 659.5,249.5C 659.638,244.586 658.972,239.919 657.5,235.5C 655.173,218.519 651.673,201.852 647,185.5C 651.63,195.089 655.964,204.756 660,214.5C 665.256,228.524 669.422,242.857 672.5,257.5 Z"/></g>
    <g><path style="opacity:1" fill="#fff" d="M 373.5,421.5 C 382.5,422.167 391.5,422.833 400.5,423.5C 395.627,430.742 390.627,437.909 385.5,445C 387.971,453.737 390.971,462.237 394.5,470.5C 394,470.833 393.5,471.167 393,471.5C 384.759,468.088 376.426,465.088 368,462.5C 360.094,467.236 352.594,472.57 345.5,478.5C 344.668,469.184 344.168,459.851 344,450.5C 336.669,445.328 329.502,439.994 322.5,434.5C 330.828,431.67 339.162,428.837 347.5,426C 348.211,424.745 349.044,423.579 350,422.5C 352.188,414.721 354.688,407.054 357.5,399.5C 362.831,406.825 368.164,414.158 373.5,421.5 Z"/></g>
    <g><path style="opacity:1" fill="#fff" d="M 538.5,450.5 C 536.033,450.755 534.033,451.755 532.5,453.5C 503.011,463.977 472.678,467.477 441.5,464C 432.628,462.116 423.962,459.616 415.5,456.5C 415.027,455.094 414.027,454.427 412.5,454.5C 411.227,451.603 411.561,448.937 413.5,446.5C 424.783,445.543 436.116,445.21 447.5,445.5C 461.5,445.5 475.5,445.5 489.5,445.5C 496.818,445.713 503.818,444.713 510.5,442.5C 535.864,436.655 559.531,426.655 581.5,412.5C 571.805,429.83 557.472,442.497 538.5,450.5 Z"/></g>
    <g><path style="opacity:1" fill="#fff" d="M 736.5,573.5 C 736.01,570.345 735.344,567.345 734.5,564.5C 735.149,542.136 735.149,519.803 734.5,497.5C 734.41,493.786 733.41,490.452 731.5,487.5C 731.186,484.053 730.352,480.72 729,477.5C 723.199,464.877 716.366,452.877 708.5,441.5C 710.187,440.432 711.854,440.599 713.5,442C 732.45,458.393 746.616,478.226 756,501.5C 759.29,515.306 760.29,529.306 759,543.5C 758.184,555.626 753.684,566.126 745.5,575C 741.978,577.199 738.978,576.699 736.5,573.5 Z"/></g>
    <g><path style="opacity:1" fill="#fff" d="M 673.5,572.5 C 671.39,576.502 670.057,580.835 669.5,585.5C 664.166,599.165 656.999,611.832 648,623.5C 627.085,651.082 602.918,675.248 575.5,696C 569.847,699.098 563.847,700.098 557.5,699C 553.011,695.529 551.178,691.029 552,685.5C 557.888,673.6 566.055,663.434 576.5,655C 602.789,635.046 625.289,611.546 644,584.5C 654.932,566.694 662.932,547.694 668,527.5C 669.709,518.582 670.709,509.582 671,500.5C 672.952,503.891 674.285,507.558 675,511.5C 676.37,519.443 677.203,527.443 677.5,535.5C 676.742,547.899 675.408,560.232 673.5,572.5 Z"/></g>
    <g><path style="opacity:1" fill="#fff" d="M 387.5,520.5 C 388.494,530.653 388.828,540.986 388.5,551.5C 388.104,571.17 387.937,590.837 388,610.5C 412.236,628.368 436.736,645.868 461.5,663C 451.626,665.903 441.959,669.07 432.5,672.5C 424.614,674.384 416.947,676.717 409.5,679.5C 397.436,682.243 385.602,685.909 374,690.5C 365.507,719.143 356.34,747.477 346.5,775.5C 329.109,751.125 311.776,726.792 294.5,702.5C 265.664,701.833 236.664,701.167 207.5,700.5C 207.137,699.817 206.804,699.15 206.5,698.5C 223.117,676.044 239.95,653.71 257,631.5C 257.167,630.5 257.333,629.5 257.5,628.5C 248.791,600.372 239.457,572.372 229.5,544.5C 229.833,544.167 230.167,543.833 230.5,543.5C 242.325,548.108 254.325,552.108 266.5,555.5C 268.509,557.065 270.843,558.065 273.5,558.5C 287.279,563.26 301.112,567.926 315,572.5C 339.035,554.962 363.201,537.629 387.5,520.5 Z"/></g>
    <g><path style="opacity:1" fill="#fff" d="M 713.5,628.5 C 721.23,633.548 729.23,638.215 737.5,642.5C 746.052,639.282 754.386,635.615 762.5,631.5C 762.833,632 763.167,632.5 763.5,633C 760.117,641.917 758.283,651.084 758,660.5C 763.833,667 769.667,673.5 775.5,680C 765.744,680.712 756.077,681.879 746.5,683.5C 742.504,691.496 738.004,699.162 733,706.5C 729.354,698.274 725.854,689.941 722.5,681.5C 713.635,678.993 704.635,676.993 695.5,675.5C 701.067,668.94 707.4,662.94 714.5,657.5C 715.355,647.796 715.021,638.129 713.5,628.5 Z"/></g>
    <g><path style="opacity:1" fill="#fff" d="M 554.5,727.5 C 557.505,729.277 560.838,730.277 564.5,730.5C 565.718,731.161 567.051,731.828 568.5,732.5C 558.499,740.328 548.332,747.994 538,755.5C 537.967,768.501 537.967,781.501 538,794.5C 527.041,787.277 516.208,779.943 505.5,772.5C 493.494,776.834 481.494,781.168 469.5,785.5C 469.167,785.167 468.833,784.833 468.5,784.5C 472.8,772.432 476.8,760.266 480.5,748C 473.737,737.407 466.404,727.24 458.5,717.5C 471.167,716.833 483.833,716.167 496.5,715.5C 504.137,705.013 511.637,694.346 519,683.5C 523.629,695.687 527.796,708.02 531.5,720.5C 538.983,723.439 546.649,725.772 554.5,727.5 Z"/></g>
</svg>